<svg xmlns="http://www.w3.org/2000/svg" width="149.972" height="32.639" viewBox="-0.001 0.001 149.972 32.639"><g fill="#FFF"><path d="M64.246 12.586c-3.547 0-5.776 2.875-5.776 6.422s2.23 6.422 5.776 6.422 5.776-2.875 5.776-6.422S67.793 12.586 64.246 12.586zM64.246 22.523c-2.118 0-2.869-1.895-2.869-3.516s.751-3.515 2.869-3.515c2.118 0 2.869 1.894 2.869 3.515S66.364 22.523 64.246 22.523L64.246 22.523zM149.8 17.393L149.8 17.393c-.413-2.771-2.798-4.818-5.6-4.807-3.548 0-5.776 2.875-5.776 6.422s2.229 6.422 5.776 6.422c2.065.01 4-1.012 5.157-2.724l-2.164-2.163c-.508 1.203-1.688 1.983-2.993 1.98-1.446 0-2.652-1.105-2.777-2.547h8.548v-1.113c-.01-.494-.065-.986-.166-1.469L149.8 17.393zM144.2 15.493c1.198-.032 2.267.749 2.6 1.899h-5.2c.333-1.148 1.398-1.929 2.594-1.899H144.2zM80.25 13.334v.006c-.871-.504-1.862-.765-2.869-.753-3.547 0-5.776 2.875-5.776 6.422 0 3.548 2.229 6.423 5.776 6.423 1.007.012 1.998-.249 2.869-.754l0 0 .727.728h2.18V12.586H81L80.25 13.334zM77.381 22.523c-2.118 0-2.869-1.894-2.869-3.515 0-1.62.751-3.515 2.869-3.515 2.118 0 2.869 1.895 2.869 3.515C80.25 20.63 79.5 22.523 77.381 22.523zM53.2 7.119H56.348000000000006V25.43H53.2zM49.872 7.119L49.872 7.119c-2.829.008-4.607 2.3-4.607 5.137v.854H44.3v2.584h.969v9.736h2.907v-9.735h2.279v-2.584h-2.283v-.854c0-.373.083-2.231 1.714-2.231h1.193V7.119H49.872zM90.74 22.443c-1.631 0-1.714-1.858-1.714-2.231l0 0v-5.1h1.938v-2.585h-1.938v-2.449h-2.907v2.449H85.13v2.584h.989v5.1l0 0c0 2.833 1.778 5.129 4.607 5.137h1.207v-2.904H90.74zM131.141 12.608h-.016c-.971-.013-1.932.198-2.809.615l-.615-.615h-2.18V25.43h2.906v-7.041c-.08-.754.172-1.505.691-2.057.519-.552 1.252-.851 2.009-.817l0 0c.757-.034 1.491.265 2.009.817.52.552.771 1.303.691 2.057v7.041h2.906v-7.041c0-.218-.012-.432-.031-.643h.031C136.744 14.91 134.581 12.612 131.141 12.608zM99.682 12.476c-1.06-.013-2.1.278-3 .837l-.594-.815h-2.18v17.593h2.907v-5.524c.871.506 1.862.766 2.869.754 3.546 0 5.776-2.875 5.776-6.422C105.46 15.351 103.229 12.476 99.682 12.476zM99.682 22.413c-2.118 0-2.869-1.894-2.869-3.515s.751-3.516 2.869-3.516c2.118 0 2.869 1.895 2.869 3.516S101.8 22.413 99.682 22.413zM120.641 13.334v.006c-.871-.504-1.863-.765-2.869-.753-3.547 0-5.776 2.875-5.776 6.422 0 3.548 2.229 6.423 5.776 6.423 1.006.012 1.998-.249 2.869-.754l0 0 .727.728h2.18V12.586h-2.16L120.641 13.334zM117.771 22.523c-2.119 0-2.869-1.894-2.869-3.515 0-1.62.75-3.515 2.869-3.515 2.117 0 2.869 1.895 2.869 3.515C120.641 20.63 119.889 22.523 117.771 22.523zM107.152 7.119H110.3V25.43H107.152zM13.447 8.959L4.928.156C4.816.041 4.657-.015 4.498.005s-.3.112-.38.251L2.983 2.2l8 10.264L13.447 8.959zM10.467 20.432l-3.423-2.576-.633 1.086c-.071.122-.055.275.041.379l2.8 3.041L10.467 20.432zM18.848 10.709c.486.282 1.768 1.1 1.89 1.184.094.064.381.258 1.347 1.9.288.586.713 1.095 1.239 1.482.057.033.129.021.173-.03.043-.05.044-.123.004-.175-.822-.961-1.55-2-2.174-3.1.139-.121.297-.217.469-.285.183-.06.341-.175.454-.33.1-.172.085-.389-.039-.545-.053-.078-.144-.122-.238-.115-.094.006-.178.063-.22.147-.134.275-.412.74-.773.79-1.071-.627-2.089-1.34-3.044-2.132-.057-.046-.139-.043-.192.007-.054.048-.065.128-.025.188C18.028 10.101 18.411 10.445 18.848 10.709L18.848 10.709zM32.8 28.032l-8.841-8.556 0 0 .21-.847c.077-.284.105-.579.085-.872-.061-.244-.162-.477-.3-.688l-.943.867-.333.306-3.198 2.946-3.453 3.175c0 0 .421.458 1.171-.039.352-.234 1.841-1.282 3.321-2.328l10.243 7.979 1.944-1.135c.137-.082.229-.223.247-.381C32.972 28.301 32.915 28.143 32.8 28.032zM9.77 16.807c.3-.241 1.512-1.252 2.784-2.32l1.251 1.606 2.9-3.767-.71-.734 0 0 .21-.848c.102-.348.12-.714.054-1.07-.08-.239-.199-.464-.354-.664l-.239.26-.934 1.016-6.125 6.657C8.607 16.943 9.065 17.365 9.77 16.807z"/><path d="M16.872 19.158l1.622 1.263 2.886-3.443-.745-.721 0 0 .292-.883c.167-.403.207-.848.113-1.274l-1.3-.873-10.5 10.5 0 0c.424.232.938.223 1.354-.024l3.048 2.812c.104.095.257.111.379.041l1.086-.634L12.532 22.5C13.748 21.564 15.386 20.3 16.872 19.158zM10.992 3.551c5.166-1.982 11.014-.739 14.927 3.173s5.156 9.761 3.173 14.926l1.55 1.55c2.731-6.075 1.423-13.206-3.287-17.916C22.646.575 15.515-.732 9.44 2L10.992 3.551z"/><path d="M24.665,27.623c-5.57,4.369-13.526,3.891-18.532-1.115S0.648,13.546,5.017,7.976 L3.571,6.529c-5.162,6.375-4.677,15.618,1.123,21.417c5.8,5.8,15.043,6.284,21.417,1.122L24.665,27.623z"/></g></svg>